<svg xmlns="http://www.w3.org/2000/svg" xmlns:xlink="http://www.w3.org/1999/xlink" width="29" height="30" viewBox="0 0 29 30">
    <defs>
        <path id="a" d="M0 3.798L4.87.018a8.528 8.528 0 0 0 13.017 4.116l4.753 3.83a14.447 14.447 0 0 1-9.72 3.741C7.283 11.705 2.4 8.492 0 3.798z"/>
        <path id="b" d="M1.644.019L6.51 3.758a8.506 8.506 0 0 0-.533 2.974c0 1.024.18 2.005.511 2.915l-4.895 3.697A14.438 14.438 0 0 1 0 6.732C0 4.309.594 2.026 1.644.019z"/>
        <path id="c" d="M4.892 11.526L.027 7.787C2.45 3.16 7.297 0 12.883 0c4.016 0 7.651 1.633 10.277 4.271l-4.21 4.241a8.528 8.528 0 0 0-14.058 3.014z"/>
    </defs>
    <g fill="none" fill-rule="evenodd">
        <path fill="#4285F4" d="M24.222 25.791l-4.75-3.833a8.549 8.549 0 0 0 3.02-3.954h-7.904v-5.976h14.1a14.56 14.56 0 0 1 .235 4.513 14.467 14.467 0 0 1-4.701 9.25z"/>
        <use fill="#34A853" transform="translate(1.582 17.828)" xlink:href="#a"/>
        <use fill="#FBBC05" transform="translate(0 8.302)" xlink:href="#b"/>
        <use fill="#EA4335" transform="translate(1.617 .533)" xlink:href="#c"/>
    </g>
</svg>